# xmcd
#
# Track frame offsets:
#	150
#	17925
#	34500
#	49800
#	64950
#	80625
#	95550
#	108375
#	126450
#	142275
#	160050
#	176625
#	191925
#	207075
#	222750
#	237675
#	250500
#	268575
#
# Disc length: 3792 seconds
#
# Revision: 1
# Processed by: cddbd v1.5.1PL2 Copyright (c) Steve Scherf et al.
# Submitted via: audiograbber 1.83.01
#
DISCID=140ece12
DTITLE=Country Hits Monthly - CHM9702
DYEAR=1997
DGENRE=Karaoke
TTITLE0=Leann Rimes - Unchained Melody (Vocal)
TTITLE1=John Berry - She's Taken A Shine (Vocal)
TTITLE2=Deana Carter - We Danced Anyway (Vocal)
TTITLE3=George Strait - King Of The Mountain (Vocal)
TTITLE4=Daryle Singletary - Amen Kind Of Love (Vocal)
TTITLE5=Toby Keith - Me Too (Vocal)
TTITLE6=Patty Loveless - She Drew A Broken Heart (Vocal)
TTITLE7=James Bonamy - All I Do Is Love Her (Vocal)
TTITLE8=Travis Tritt - Where The Corn Don't Grow (Vocal)
TTITLE9=Leann Rimes - Unchained Melody
TTITLE10=John Berry - She's Taken A Shine
TTITLE11=Deana Carter - We Danced Anyway
TTITLE12=George Strait - King Of The Mountain
TTITLE13=Daryle Singletary - Amen Kind Of Love
TTITLE14=Toby Keith - Me Too
TTITLE15=Patty Loveless - She Drew A Broken Heart
TTITLE16=James Bonamy - All I Do Is Love Her
TTITLE17=Travis Tritt - Where The Corn Don't Grow
EXTD=
EXTT0=
EXTT1=
EXTT2=
EXTT3=
EXTT4=
EXTT5=
EXTT6=
EXTT7=
EXTT8=
EXTT9=
EXTT10=
EXTT11=
EXTT12=
EXTT13=
EXTT14=
EXTT15=
EXTT16=
EXTT17=
PLAYORDER=
